<?xml version="1.0" encoding="UTF-8" standalone="no"?>
<svg
   xmlns:dc="http://purl.org/dc/elements/1.1/"
   xmlns:cc="http://creativecommons.org/ns#"
   xmlns:rdf="http://www.w3.org/1999/02/22-rdf-syntax-ns#"
   xmlns:svg="http://www.w3.org/2000/svg"
   xmlns="http://www.w3.org/2000/svg"
   xmlns:sodipodi="http://sodipodi.sourceforge.net/DTD/sodipodi-0.dtd"
   xmlns:inkscape="http://www.inkscape.org/namespaces/inkscape"
   id="svg8"
   viewBox="0 0 169.99 96.22"
   version="1.1"
   sodipodi:docname="device.svg"
   inkscape:version="0.92.0 r15299"
   width="169.99001"
   height="96.220001">
  <metadata
     id="metadata14">
    <rdf:RDF>
      <cc:Work
         rdf:about="">
        <dc:format>image/svg+xml</dc:format>
        <dc:type
           rdf:resource="http://purl.org/dc/dcmitype/StillImage" />
        <dc:title></dc:title>
      </cc:Work>
    </rdf:RDF>
  </metadata>
  <defs
     id="defs12" />
  <sodipodi:namedview
     pagecolor="#ffffff"
     bordercolor="#666666"
     borderopacity="1"
     objecttolerance="10"
     gridtolerance="10"
     guidetolerance="10"
     inkscape:pageopacity="0"
     inkscape:pageshadow="2"
     inkscape:window-width="1298"
     inkscape:window-height="745"
     id="namedview10"
     showgrid="false"
     inkscape:zoom="4"
     inkscape:cx="91.672514"
     inkscape:cy="46.628448"
     inkscape:window-x="54"
     inkscape:window-y="-8"
     inkscape:window-maximized="1"
     inkscape:current-layer="svg8"
     fit-margin-top="0"
     fit-margin-left="0"
     fit-margin-right="0"
     fit-margin-bottom="0" />
  <g
     id="layer2"
     stroke-miterlimit="5"
     style="stroke:#131313;stroke-linecap:round;stroke-linejoin:round;stroke-miterlimit:5">
    <g
       id="desktop">
      <path
         id="path4499"
         d="m 0.5,79.67 c 0.57,1.67 1.48,3 3.2,3.5 l 58.9,-0.05 c 0,2.86 -0.53,7.5 -1.8,9.8 L 43.86,92.87 c -0.97,0.4 -1.8,1.1 -2.32,2.3 l 0.1,0.5 52,0.05 v -0.58 c -0.48,-1.7 -1.46,-1.93 -2.36,-2.37 l -16.98,0.1 c -2.1,-3.66 -1.78,-7.43 -1.98,-9.75 h 56.03 c 1.47,-0.42 2.62,-1.34 3.07,-3.4 l 0.05,-75.87 c -0.12,-1.77 -1.1,-2.77 -2.65,-3.26 L 3.3,0.5 C 1.5,1.04 0.67,2.2 0.6,3.8 Z"
         inkscape:connector-curvature="0"
         style="fill:#131313;paint-order:fill markers stroke"
         sodipodi:nodetypes="ccccccccccccccccccc" />
      <path
         id="monitor-screen"
         d="M 2.6,2.98 128.73,2.88 128.7,76.06 H 2.6 Z"
         inkscape:connector-curvature="0"
         style="fill:#ffffff;paint-order:fill markers stroke"
         sodipodi:nodetypes="ccccc" />
    </g>
    <g
       id="g4517">
      <path
         id="nexus"
         d="m 133.5,93.170001 c 2.32,2.5 3.8,2.25 5.43,2.55 l 24.95,-0.06 c 3.4,-0.22 4.22,-1.33 5.4,-2.3 l -0.12,-55 h 0.33 l -0.06,-4.57 h -0.33 v -6.7 c -0.95,-1.32 -1.92,-1.5 -2.88,-1.68 l -29.7,-0.06 c -1.08,0.23 -2.2,0.24 -3.02,1.84 z"
         inkscape:connector-curvature="0"
         style="fill:#131313;paint-order:fill markers stroke" />
      <path
         id="nexus-screen"
         d="m 134.78,30.660001 33.1,0.02 0.04,57.74 -33.1,-0.1 z"
         inkscape:connector-curvature="0"
         style="fill:#ffffff;stroke:#ffffff;stroke-width:0.30000001;stroke-miterlimit:5;stroke-dasharray:none;stroke-opacity:1;paint-order:fill markers stroke" />
    </g>
  </g>
  <circle
     style="opacity:1;fill:#ffffff;fill-opacity:1;stroke:none;stroke-width:4.96517277;stroke-linecap:round;stroke-linejoin:round;stroke-miterlimit:5;stroke-dasharray:none;stroke-opacity:1;paint-order:fill markers stroke"
     id="path4491"
     cx="7.5019999"
     cy="79.720001"
     r="1" />
  <circle
     style="opacity:1;fill:#ffffff;fill-opacity:1;stroke:none;stroke-width:4.96517277;stroke-linecap:round;stroke-linejoin:round;stroke-miterlimit:5;stroke-dasharray:none;stroke-opacity:1;paint-order:fill markers stroke"
     id="path4491-3"
     cx="11.457109"
     cy="79.720001"
     r="1" />
  <circle
     style="opacity:1;fill:#ffffff;fill-opacity:1;stroke:none;stroke-width:2.48258662;stroke-linecap:round;stroke-linejoin:round;stroke-miterlimit:5;stroke-dasharray:none;stroke-opacity:1;paint-order:fill markers stroke"
     id="path4491-5"
     cx="138.57001"
     cy="28.420734"
     r="0.5" />
  <rect
     style="opacity:1;fill:#0ff000;fill-opacity:0;stroke:none;stroke-width:3.77952766;stroke-linecap:round;stroke-linejoin:round;stroke-miterlimit:5;stroke-dasharray:none;stroke-opacity:1;paint-order:fill markers stroke"
     id="rect4491"
     width="2.7623377"
     height="7.3662338"
     x="66.366936"
     y="62.680542" />
  <rect
     style="opacity:1;fill:#ffffff;fill-opacity:1;stroke:none;stroke-width:3.77952766;stroke-linecap:round;stroke-linejoin:round;stroke-miterlimit:5;stroke-dasharray:none;stroke-opacity:1;paint-order:fill markers stroke"
     id="rect4493"
     width="1.6726342"
     height="8.900177"
     x="66.713966"
     y="83.653099"
     ry="0.98656917" />
  <rect
     style="opacity:1;fill:#ffffff;fill-opacity:1;stroke:#ffffff;stroke-width:0.30000001;stroke-linecap:round;stroke-linejoin:round;stroke-miterlimit:5;stroke-dasharray:none;stroke-opacity:1;paint-order:fill markers stroke"
     id="nexus-menu"
     width="8.8407669"
     height="0.82950485"
     x="146.85745"
     y="91.907501"
     ry="0.41475242" />
</svg>
