<svg xmlns="http://www.w3.org/2000/svg" id="svg8" viewBox="0 0 77.7 77"><g id="layer2" fill="#191919" stroke="#191919" opacity=".4" stroke-linecap="round" stroke-linejoin="round"><path id="path4700-2" stroke-width=".9" stroke-miterlimit="10" d="M58.8 76.5L45.8 47 39 57z" paint-order="fill markers stroke"/><path id="path4830" stroke-width=".9" stroke-miterlimit="10" d="M76.8 40.4l-19-25L77.3.3z" paint-order="fill markers stroke"/><path id="path4910" stroke-miterlimit="5" d="M32 47L38.8 26l7 20.8z" paint-order="fill markers stroke"/><path id="path4912-2" stroke-miterlimit="5" d="M58.8 76.5l18-36L65 25.3z" paint-order="fill markers stroke"/><path id="path4700-2-5" stroke-width=".9" stroke-miterlimit="10" d="M19 76.5L31.7 47l7 10z" paint-order="fill markers stroke"/><path id="path4830-0" stroke-width=".9" stroke-miterlimit="10" d="M1 40.4l18.8-25L.5.3z" paint-order="fill markers stroke"/><path id="path4912-2-8" stroke-miterlimit="5" d="M19 76.5l-18-36 11.5-15.2z" paint-order="fill markers stroke"/></g><g id="layer5"><path id="path4649" fill="none" stroke="#191919" stroke-miterlimit="5" d="M0 0l.3 40.6L18.6 77l20.2-19.7 20 19.8 18.6-36.5V.2l-19.8 15 7.2 10-6.2 49.4-12.3-28-7.4-21-7.4 21-12.3 27.8-6.5-49.2 7.4-9.8z" stroke-linecap="round" stroke-linejoin="round" paint-order="fill markers stroke"/></g></svg>